<?xml version="1.0" standalone="no"?>
<!DOCTYPE svg PUBLIC "-//W3C//DTD SVG 20010904//EN"
 "http://www.w3.org/TR/2001/REC-SVG-20010904/DTD/svg10.dtd">
<svg version="1.0" xmlns="http://www.w3.org/2000/svg"
 width="1231.000000pt" height="553.000000pt" viewBox="0 0 1231.000000 553.000000"
 preserveAspectRatio="xMidYMid meet">

<g transform="translate(0.000000,553.000000) scale(0.100000,-0.100000)"
fill="#666666" stroke="none">
<path d="M3464 3709 c-60 -39 -187 -160 -264 -254 -114 -139 -320 -485 -485
-813 l-83 -167 -114 -110 c-252 -246 -431 -365 -609 -405 -46 -10 -60 -10 -90
3 -55 23 -72 69 -67 181 6 109 48 229 103 294 43 50 252 190 395 265 58 30
150 72 205 92 136 49 164 87 109 142 -25 25 -29 26 -107 20 -94 -7 -177 -32
-292 -87 -105 -50 -191 -117 -295 -227 -47 -50 -125 -123 -175 -164 -267 -219
-447 -407 -700 -734 -314 -407 -444 -549 -560 -616 -55 -32 -105 -38 -105 -14
0 8 -7 15 -15 15 -19 0 -19 -19 0 -44 20 -27 92 -23 152 8 133 67 290 216 508
480 260 315 493 563 634 675 l41 33 -8 -49 c-4 -26 -7 -91 -6 -143 0 -111 18
-156 84 -213 73 -62 182 -67 335 -15 117 40 210 96 368 221 48 38 90 68 92 65
2 -2 -4 -32 -14 -66 -32 -104 -35 -152 -11 -189 17 -29 25 -33 64 -33 54 0 74
18 211 190 181 228 443 470 630 583 80 48 121 65 132 53 3 -3 -48 -86 -114
-183 -158 -234 -202 -321 -218 -435 -12 -84 1 -134 50 -185 l44 -45 68 4 c76
4 123 28 213 108 25 22 48 40 51 40 4 0 9 -26 13 -58 13 -114 67 -162 183
-162 121 0 277 75 458 220 l40 32 7 -61 c16 -142 94 -212 213 -190 63 12 119
47 225 140 l90 80 0 -53 c0 -70 25 -116 80 -145 122 -65 310 15 558 235 l85
76 -6 -56 c-21 -173 72 -269 243 -255 74 6 132 24 240 73 41 19 76 31 77 27
11 -32 47 -74 68 -79 56 -14 91 4 192 100 247 234 372 339 558 468 157 109
349 213 427 232 39 9 42 -5 14 -68 -31 -70 -78 -139 -245 -360 -333 -442 -482
-724 -484 -913 0 -63 4 -79 29 -119 43 -69 104 -98 209 -97 89 0 142 15 254
71 79 39 173 117 196 162 32 62 -20 55 -260 -37 -67 -26 -158 -44 -186 -38
-63 14 -66 60 -13 201 34 92 45 115 117 244 41 74 179 280 320 477 130 184
186 279 216 372 26 81 27 131 1 181 -66 128 -252 89 -609 -128 -57 -35 -105
-61 -107 -60 -2 2 24 35 58 73 106 123 284 354 324 422 139 237 136 443 -5
443 -129 0 -313 -236 -734 -940 -67 -112 -138 -221 -158 -240 -47 -48 -186
-154 -263 -200 -109 -65 -241 -109 -285 -95 -47 14 -15 145 75 314 114 212
248 405 429 616 282 329 355 432 355 500 0 52 -23 75 -74 75 -64 0 -150 -94
-400 -435 -80 -110 -214 -280 -298 -378 l-152 -177 -30 29 c-57 53 -93 66
-186 66 -79 -1 -91 -4 -175 -43 -88 -42 -285 -167 -335 -214 -14 -13 -48 -43
-75 -67 -28 -25 -93 -85 -145 -136 -113 -109 -198 -174 -230 -177 -20 -3 -25
3 -32 32 -7 33 -3 136 8 189 3 14 76 97 167 190 182 187 286 315 439 542 102
152 210 354 243 454 26 79 30 146 11 183 -31 60 -87 68 -157 23 -58 -37 -237
-222 -329 -341 -122 -158 -300 -439 -375 -592 -37 -74 -59 -128 -127 -311 -13
-34 -132 -146 -247 -232 -107 -81 -235 -147 -287 -149 -38 -1 -39 0 -42 37 -9
106 116 360 267 541 37 45 75 92 84 106 38 55 7 120 -56 120 -38 0 -83 -42
-194 -181 -104 -131 -354 -418 -410 -471 -47 -44 -110 -88 -125 -88 -4 0 -12
9 -18 20 -8 15 -6 37 11 93 26 89 50 136 160 307 125 194 149 245 149 313 0
72 -27 97 -105 97 -160 0 -421 -174 -729 -483 -77 -77 -137 -134 -134 -126 3
8 15 46 28 84 27 82 36 97 155 236 246 290 497 613 620 799 104 156 147 241
153 300 3 39 0 51 -23 78 -37 44 -91 44 -161 1z m-44 -217 c0 -19 -240 -353
-309 -431 -29 -33 -26 -22 10 46 53 100 158 250 226 323 65 70 73 77 73 62z
m1805 -104 c-29 -95 -160 -312 -301 -500 -126 -168 -304 -375 -304 -353 0 11
58 127 106 210 154 271 285 456 428 603 64 66 81 76 71 40z m1950 -139 c-19
-71 -83 -175 -190 -309 -101 -125 -225 -263 -232 -257 -13 14 213 383 314 514
97 125 131 142 108 52z m-1607 -836 c17 -13 32 -28 32 -33 0 -5 -44 -55 -97
-111 -175 -183 -394 -339 -476 -339 -28 0 -29 2 -24 34 13 83 101 217 215 331
144 145 261 185 350 118z"/>
<path d="M11313 3254 c-106 -52 -223 -219 -412 -589 -40 -77 -79 -147 -87
-155 -12 -12 -14 -10 -14 19 0 123 -102 229 -210 219 -146 -14 -316 -195 -407
-433 -101 -261 -51 -475 119 -515 94 -23 212 29 339 148 l79 74 10 -27 c5 -14
10 -29 10 -31 0 -3 14 -25 30 -49 34 -49 91 -87 166 -110 57 -17 199 -20 276
-5 29 6 78 15 108 21 134 25 299 95 358 152 34 33 62 85 62 118 0 10 -9 24
-21 32 -24 17 -49 12 -124 -25 -73 -37 -168 -66 -270 -82 -205 -34 -337 -28
-380 15 -40 40 -12 218 56 349 15 30 82 129 148 220 266 365 332 476 333 561
0 44 -4 56 -29 79 -42 42 -78 45 -140 14z m-655 -734 c13 -37 13 -57 3 -124
-18 -124 -28 -148 -95 -225 -107 -123 -199 -188 -231 -161 -23 19 -20 142 6
221 47 144 162 314 233 345 41 17 65 1 84 -56z"/>
<path d="M9494 2841 c-84 -23 -145 -53 -231 -113 -84 -59 -249 -212 -278 -258
-31 -50 -89 -281 -81 -323 4 -18 10 -52 14 -77 24 -136 135 -234 281 -247 221
-20 443 159 585 471 38 84 76 220 76 275 0 205 -164 326 -366 272z"/>
<path d="M8261 2785 c-95 -23 -199 -82 -265 -150 -82 -83 -170 -237 -197 -340
-4 -16 -14 -55 -22 -85 -36 -135 -30 -181 30 -245 21 -22 52 -57 70 -78 54
-62 101 -81 191 -74 241 16 492 267 591 591 61 199 -9 330 -204 382 -61 17
-122 16 -194 -1z"/>
<path d="M9105 1582 c-33 -21 -37 -27 -91 -157 -65 -156 -141 -265 -257 -371
-126 -114 -269 -179 -421 -190 -287 -22 -434 131 -397 415 16 120 33 181 62
220 18 25 20 33 9 46 -19 22 -43 18 -72 -12 -89 -95 -145 -378 -104 -528 37
-140 145 -244 301 -292 82 -24 293 -24 384 1 262 71 512 291 640 561 96 201
103 273 31 310 -37 19 -49 19 -85 -3z"/>
</g>
</svg>
